<?xml version="1.0" encoding="utf-8"?>
<!-- Generator: Adobe Illustrator 25.2.1, SVG Export Plug-In . SVG Version: 6.00 Build 0)  -->
<svg version="1.1" id="Layer_1" xmlns="http://www.w3.org/2000/svg" xmlns:xlink="http://www.w3.org/1999/xlink" x="0px" y="0px"
	 viewBox="0 0 1105 203.29" style="enable-background:new 0 0 1105 203.29;" xml:space="preserve">
<style type="text/css">
	.st0{fill:#F7B319;}
	.st1{fill:url(#SVGID_1_);}
	.st2{fill:url(#SVGID_2_);}
	.st3{fill:url(#SVGID_3_);}
	.st4{fill:url(#SVGID_4_);}
	.st5{fill:url(#SVGID_5_);}
	.st6{fill:url(#SVGID_6_);}
	.st7{fill:url(#SVGID_7_);}
	.st8{fill:url(#SVGID_8_);}
	.st9{fill:url(#SVGID_9_);}
	.st10{fill:url(#SVGID_10_);}
	.st11{fill:url(#SVGID_11_);}
	.st12{fill:url(#SVGID_12_);}
</style>
<g>
	<path class="st0" d="M114.44,144.31c-16.47-0.16,17.11-0.8,46.7,8c29.59,8.8,37.27-12.32,37.27-12.32s0,0.32,0.16,1.12
		c1.44,18.55-16.63,32.47-33.91,26.55c-7.2-2.56-17.11-6.88-29.11-14.39C135.39,153.11,120.2,144.31,114.44,144.31z"/>
	<path class="st0" d="M187.85,108.17l-53.74-15.67C134.11,92.65,152.67,120.64,187.85,108.17z"/>
	<g>
		
			<linearGradient id="SVGID_1_" gradientUnits="userSpaceOnUse" x1="264.0213" y1="495.7854" x2="381.5198" y2="495.7854" gradientTransform="matrix(1 0 0 -1 0 598)">
			<stop  offset="0.1946" style="stop-color:#FDB714"/>
			<stop  offset="1" style="stop-color:#E5AF3A"/>
			<stop  offset="1" style="stop-color:#040504"/>
		</linearGradient>
		<path class="st1" d="M293.09,57.31l0.16-35.51c0,0,21.43-5.28,44.62,7.84c0.64,0.32,1.28,0.64,1.92,0.96
			c6.08,3.2,47.18,26.87,41.27,83.17c-6.56,60.62-68.46,69.09-89.09,69.73c-20.63,0.64-27.83-0.64-27.83-0.64
			s33.91-32.15,42.86-37.27c8-4.64,43.34-15.67,36.79-49.9C337.24,61.46,304.93,56.67,293.09,57.31z"/>
		
			<linearGradient id="SVGID_2_" gradientUnits="userSpaceOnUse" x1="207.641" y1="473.4631" x2="325.4025" y2="473.4631" gradientTransform="matrix(0.9988 0.0494 0.0494 -0.9988 -40.9473 614.266)">
			<stop  offset="0.1946" style="stop-color:#FDB714"/>
			<stop  offset="1" style="stop-color:#E5AF3A"/>
			<stop  offset="1" style="stop-color:#040504"/>
		</linearGradient>
		<path class="st2" d="M302.21,149.91c-12.8,9.28-24.95,19.83-36.47,30.55c-2.56,2.4-5.12,4.32-7.52,6.88
			c-6.4,6.4-19.03,15.19-39.51,14.07l-10.08-0.48c0,0,20.31-5.6,22.23-18.07c1.76-12.48,5.12-19.03,5.12-19.03s-0.8-0.16-2.24-0.8
			c-9.92-3.84-16.47-13.44-16.63-24.15l0,0c0,0,7.68,12.96,22.07,7.68c0,0,10.24-4.96,3.2-18.55c0,0-5.12-14.71-33.91-7.04
			c0,0-8.8,0.16-17.59,8.8c0,0,6.88-18.87,28.31-22.71c21.43-3.68,30.23-2.08,52.94,17.59c22.71,19.83,35.83,21.91,35.83,21.91
			L302.21,149.91z"/>
		
			<linearGradient id="SVGID_3_" gradientUnits="userSpaceOnUse" x1="195.2442" y1="542.533" x2="300.9356" y2="542.533" gradientTransform="matrix(1 0 0 -1 0 598)">
			<stop  offset="0.1946" style="stop-color:#FDB714"/>
			<stop  offset="1" style="stop-color:#E5AF3A"/>
			<stop  offset="1" style="stop-color:#040504"/>
		</linearGradient>
		<path class="st3" d="M292.29,108.17c0,0-21.27-21.59-52.78-17.11c0,0-29.91,8.8-44.14-1.6c0,0,25.11,4.96,37.11-9.44
			s15.83-10.56,15.83-10.56s-16.95-8.8-29.91-1.12l-5.92,4.96c0,0,4.32-24.31,10.88-28.79c6.56-4.48,13.12-8.32,22.39-3.84
			c0,0-7.68-15.03-2.24-31.67c0,0,9.28,24.95,16.31,18.23c0,0,4.96-0.48,4.96-9.44s4.32-15.03,13.6-15.03s22.87,8.32,22.87,8.32
			s-9.28,4.48-8.64,7.84v89.25H292.29z"/>
	</g>
	<path class="st0" d="M178.58,137.76c0,0,3.52-29.11-104.76-23.03c0,0-64.3,1.28-72.61-6.08c0,0,32.79,21.11,58.38,24.15
		C80.85,135.52,167.86,125.6,178.58,137.76z"/>
	<g>
		<g>
			
				<linearGradient id="SVGID_4_" gradientUnits="userSpaceOnUse" x1="392.8979" y1="478.5562" x2="1103.8901" y2="478.5562" gradientTransform="matrix(1 0 0 -1 0 598)">
				<stop  offset="0.1946" style="stop-color:#FDB714"/>
				<stop  offset="1" style="stop-color:#E5AF3A"/>
				<stop  offset="1" style="stop-color:#040504"/>
			</linearGradient>
			<path class="st4" d="M441.68,80.18c16.47,0,27.51,9.44,27.51,25.11c0,26.55-21.91,53.42-48.78,53.42
				c-16.63,0-27.51-9.92-27.51-26.23c0-13.76,5.12-25.91,14.55-36.47C416.89,86.1,428.72,80.18,441.68,80.18z M437.2,90.57
				c-13.44,0-22.07,27.03-22.07,43.34c0,8.32,2.72,14.39,9.92,14.39c13.28,0,21.91-26.87,21.91-43.02
				C446.8,96.97,444.4,90.57,437.2,90.57z"/>
			
				<linearGradient id="SVGID_5_" gradientUnits="userSpaceOnUse" x1="392.955" y1="478.3963" x2="1103.9471" y2="478.3963" gradientTransform="matrix(1 0 0 -1 0 598)">
				<stop  offset="0.1946" style="stop-color:#FDB714"/>
				<stop  offset="1" style="stop-color:#E5AF3A"/>
				<stop  offset="1" style="stop-color:#040504"/>
			</linearGradient>
			<path class="st5" d="M555.24,88.18c0,3.04-0.8,6.56-1.92,10.56c-4,13.76-8.96,27.67-8.96,37.75c0,2.88,0.96,4.8,1.6,6.08
				c4.16-0.8,14.71-12.16,16.47-12.16c0.64,0,0.96,0.48,0.96,1.28c0,10.24-15.99,25.75-26.87,25.75c-8.48,0-13.44-4.96-13.44-15.03
				c0-3.84,0.64-7.04,1.28-10.88c-11.68,17.75-22.87,27.19-35.03,27.19c-11.2,0-13.12-7.36-13.12-14.55
				c0-11.04,10.88-42.7,10.88-53.42c0-2.4-0.32-5.12-1.44-7.2c5.44-1.92,10.88-3.04,14.71-3.04c6.88,0,8.8,3.52,8.8,7.84
				c0,2.88-0.96,6.08-1.44,8.64c-4.8,19.83-9.76,35.99-9.76,42.86c0,1.76,0.64,3.68,2.88,3.68c4.16,0,13.6-9.76,21.91-23.67
				c7.68-13.12,11.68-24.79,11.68-32.47c0-1.6-0.32-3.36-1.12-4.8c3.84-1.28,9.12-1.92,12.96-1.92
				C550.92,80.82,555.24,82.42,555.24,88.18z"/>
			
				<linearGradient id="SVGID_6_" gradientUnits="userSpaceOnUse" x1="392.955" y1="492.8711" x2="1103.9471" y2="492.8711" gradientTransform="matrix(1 0 0 -1 0 598)">
				<stop  offset="0.1946" style="stop-color:#FDB714"/>
				<stop  offset="1" style="stop-color:#E5AF3A"/>
				<stop  offset="1" style="stop-color:#040504"/>
			</linearGradient>
			<path class="st6" d="M581.63,62.74c0-2.24-0.48-4.48-1.44-6.56c5.76-3.04,11.04-4.32,15.83-4.32c4,0,7.84,1.76,7.84,6.56
				c0,5.44-4.48,24.95-11.68,49.58c12.8-19.51,25.43-28.15,35.99-28.15c12.64,0,15.35,10.4,15.35,20.15
				c0,25.59-20.95,58.38-47.34,58.38c-5.76,0-11.52-1.44-16.31-4.16c-2.72,2.72-6.24,3.68-10.24,3.68c-3.84,0-7.84-1.12-11.84-3.2
				c2.72-4.16,4.8-8.96,7.04-16.47c4-15.99,9.6-37.43,14.23-57.9C580.67,72.34,581.63,67.06,581.63,62.74z M621.77,103.21
				c0-4.16-0.96-8.48-4.96-8.48c-7.36,0-26.55,29.59-32.31,44.46c0.48,5.6,7.04,8.32,12.8,8.32c10.72,0,21.91-19.51,24.31-39.35
				C621.61,106.73,621.77,105.13,621.77,103.21z"/>
			
				<linearGradient id="SVGID_7_" gradientUnits="userSpaceOnUse" x1="392.955" y1="492.8095" x2="1103.9471" y2="492.8095" gradientTransform="matrix(1 0 0 -1 0 598)">
				<stop  offset="0.1946" style="stop-color:#FDB714"/>
				<stop  offset="1" style="stop-color:#E5AF3A"/>
				<stop  offset="1" style="stop-color:#040504"/>
			</linearGradient>
			<path class="st7" d="M681.91,139.68c6.72-4.64,12-8.64,13.6-8.64c1.28,0,0,2.72-4.64,9.76c-6.88,10.24-21.91,17.27-29.43,17.27
				c-8,0-13.44-4.16-13.44-12.8c-0.16-3.04,0.48-6.56,1.28-11.84c0.32-1.12,0.48-2.4,0.64-3.68c-5.44,3.68-7.68,5.12-8.16,5.12
				c-0.64,0,2.88-3.04,7.36-6.56c-0.16,0.16,0.32-0.32,1.28-1.12c5.6-22.23,12.16-45.1,19.35-67.02c0.8-2.08,2.72-4.48,5.12-6.08
				c2.4-1.6,5.12-1.92,7.36-1.76c4.32,0.32,8.64,1.44,12.8,4.32c0.64,0.64,1.12,1.28,1.28,2.08c0,0.16,0.48,1.76,0.48,5.12
				c0,1.44,0,3.04-0.32,4.96c-0.8,5.92-3.68,12.96-6.72,19.83c-5.12,11.04-12.64,20.63-15.51,24.15l-0.16,0.8
				c-0.32,1.28-0.64,2.72-1.12,4.16c-1.12,4.48-3.84,16.15-3.84,19.83c0,2.88,0.8,4.64,1.44,5.92
				C674.88,143.04,678.87,141.76,681.91,139.68z M676.32,104.65c3.36-4.48,7.36-10.88,10.56-17.91c3.2-6.56,5.92-13.44,6.4-18.71
				c0.16-1.92,0.32-3.84,0.16-5.28c0-1.44-1.92-1.92-2.72-0.64c-0.48,0.64-0.96,1.6-1.28,2.4c-2.56,6.4-4.8,12.64-6.72,19.03
				C680.47,90.41,678.39,97.61,676.32,104.65z"/>
			
				<linearGradient id="SVGID_8_" gradientUnits="userSpaceOnUse" x1="392.955" y1="478.5562" x2="1103.9471" y2="478.5562" gradientTransform="matrix(1 0 0 -1 0 598)">
				<stop  offset="0.1946" style="stop-color:#FDB714"/>
				<stop  offset="1" style="stop-color:#E5AF3A"/>
				<stop  offset="1" style="stop-color:#040504"/>
			</linearGradient>
			<path class="st8" d="M760.44,135.04c2.08,3.52,1.76,7.84-0.96,11.2c-2.56,3.04-6.4,5.6-11.36,7.68c-7.52,3.2-15.35,4.8-23.83,4.8
				c-17.59,0-27.67-7.2-28.47-21.75c-0.8-14.55,4.64-28.79,15.03-39.35c10.08-11.36,23.03-17.43,36.47-17.43
				c12.64,0,18.71,5.12,18.55,14.71c0,9.6-13.28,21.91-33.59,28.63c-4.8,1.6-14.55,5.6-14.71,9.28c-0.16,3.36,0.32,6.4,1.6,8.16
				c3.36,4.48,8.8,7.2,14.39,6.56C744.45,146.39,752.61,142.08,760.44,135.04z M719.18,123.2c2.56-5.28,7.04-7.04,12.64-9.92
				c9.6-4.96,12.32-9.6,13.91-14.55c1.44-4.96-0.32-9.12-5.76-9.12c-8.16,0-14.87,9.76-19.35,27.19
				C720.62,116.8,720.14,119.2,719.18,123.2z"/>
			
				<linearGradient id="SVGID_9_" gradientUnits="userSpaceOnUse" x1="392.955" y1="494.5652" x2="1103.9471" y2="494.5652" gradientTransform="matrix(1 0 0 -1 0 598)">
				<stop  offset="0.1946" style="stop-color:#FDB714"/>
				<stop  offset="1" style="stop-color:#E5AF3A"/>
				<stop  offset="1" style="stop-color:#040504"/>
			</linearGradient>
			<path class="st9" d="M906.79,146.55c0.16,0.16,0.16,0.64,0,0.64c-2.72,8-9.76,12.64-17.43,12.64c-7.52,0-13.91-3.68-21.43-13.91
				c-9.76-13.28-19.51-30.87-23.03-40.47c-6.24,24.79-9.28,38.71-9.28,43.5c0,3.04,1.12,4.32,1.28,6.24
				c-3.52,2.4-10.56,4.16-16.63,4.16c-5.76,0-8.32-1.76-8.48-5.76c0-2.72,0.64-6.08,2.08-11.36c8-27.83,16.15-53.58,19.35-82.37
				c0.32-3.04-0.32-5.12-1.6-8.16c6.08-3.2,11.04-4.32,15.83-4.64c2.4-0.16,5.12,0.32,6.72,1.76c1.6,1.6,2.08,4.16,1.92,6.4
				c-0.32,2.88-4.32,24.95-9.76,43.82c1.6-1.44,3.36-2.56,5.44-4c28.95-18.39,39.99-29.75,40.31-40.79c0-1.76-0.16-3.52-0.64-5.28
				c4.96-1.12,8.16-1.6,9.76-1.6c5.92,0,8.96,3.04,8.96,8.32c0,5.12-2.72,11.36-9.76,18.55c-11.04,11.04-32.47,22.71-34.23,29.43
				c13.44,24.95,27.83,42.54,39.83,42.54C906.31,146.23,906.63,146.39,906.79,146.55z"/>
			
				<linearGradient id="SVGID_10_" gradientUnits="userSpaceOnUse" x1="392.955" y1="495.75" x2="1103.9471" y2="495.75" gradientTransform="matrix(1 0 0 -1 0 598)">
				<stop  offset="0.1946" style="stop-color:#FDB714"/>
				<stop  offset="1" style="stop-color:#E5AF3A"/>
				<stop  offset="1" style="stop-color:#040504"/>
			</linearGradient>
			<path class="st10" d="M942.14,138.24c6.56-6.72,9.92-8.64,9.92-5.76c0,1.44-0.8,4-2.4,7.68c-4.16,9.12-16.47,17.91-24.31,17.91
				c-8,0-12.8-4.16-13.44-12.96c-0.32-3.04,0-12.16,3.04-22.71c2.56-8.48,3.84-16.79,4.96-22.07c0.64-2.88,0.8-5.44,0.8-7.68
				c0-2.72-0.8-4.96-2.24-7.04c5.28-1.76,10.4-3.04,15.03-3.04c2.56,0,5.76,0.48,7.52,2.24c1.76,1.76,2.4,4.16,1.76,7.36
				c-0.48,2.24-0.96,4.48-1.6,7.04c-2.24,7.84-4.96,16.79-5.92,20.79c-1.28,4.96-2.24,12.96-2.24,17.11c0,2.88,0.96,4.8,1.6,6.08
				C936.38,142.88,939.26,140.96,942.14,138.24z M949.5,46.43c-7.2,0-14.23,1.28-20.47,3.52c0.32,0.64,0.8,1.28,0.8,1.92
				c0.16,5.6-2.4,13.76-2.4,17.75c0,2.24,1.6,5.28,8,4c8.8-1.76,8.64-1.6,15.19-11.2c3.84-5.6,5.28-8,6.08-10.72
				c0.16-0.64,0.16-1.12,0.16-1.76C956.53,48.03,954.13,46.43,949.5,46.43z"/>
			
				<linearGradient id="SVGID_11_" gradientUnits="userSpaceOnUse" x1="392.955" y1="478.7162" x2="1103.9471" y2="478.7162" gradientTransform="matrix(1 0 0 -1 0 598)">
				<stop  offset="0.1946" style="stop-color:#FDB714"/>
				<stop  offset="1" style="stop-color:#E5AF3A"/>
				<stop  offset="1" style="stop-color:#040504"/>
			</linearGradient>
			<path class="st11" d="M1017.95,139.04c0,12.16-24.31,19.51-37.11,19.51c-17.91,0-27.03-7.84-27.03-23.83
				c0-28.15,23.51-54.7,51.34-54.7c12.96,0,19.03,3.04,19.03,8.96c0,5.44-6.08,9.6-14.23,12c-1.92-8.16-4.64-11.04-10.72-11.04
				c-12.64,0-22.07,15.35-22.07,40.95c0,8.64,3.36,15.99,11.52,15.99c10.72,0,21.27-4.96,28.15-12.64
				C1017.63,135.84,1017.95,137.44,1017.95,139.04z"/>
			
				<linearGradient id="SVGID_12_" gradientUnits="userSpaceOnUse" x1="392.955" y1="492.7911" x2="1103.9471" y2="492.7911" gradientTransform="matrix(1 0 0 -1 0 598)">
				<stop  offset="0.1946" style="stop-color:#FDB714"/>
				<stop  offset="1" style="stop-color:#E5AF3A"/>
				<stop  offset="1" style="stop-color:#040504"/>
			</linearGradient>
			<path class="st12" d="M1056.5,52.67c4.48,0,7.36,2.56,7.36,7.04c0-0.64-4.48,27.19-12.32,56.3
				c18.07-23.51,31.51-35.35,40.63-35.35c5.12,0,7.84,4.64,8.64,13.76c-8.64,0-18.39,5.12-30.71,18.39c0,0.48-0.16,0.96-0.16,1.6
				c0,1.28,0.32,2.72,0.8,4.16c3.68,10.24,8.8,22.39,19.35,22.39c3.84,0,8-1.44,12.96-4.32c0.32-0.16,0.48-0.32,0.64-0.32
				s0.32,0.32,0.32,0.64c0,0.48-0.16,0.64-0.32,0.96c-4,9.76-15.67,19.35-24.95,19.35c-8.96,0-16.15-8.32-24.47-30.87
				c-3.84,6.56-6.24,12.48-11.2,23.67c-2.08,5.12-4.8,7.68-12.48,7.68c-3.04,0-6.72-0.48-11.68-1.12
				c11.52-28.15,18.55-59.5,22.87-91.49c0-0.64,0.16-0.96,0.16-1.44c0-2.24-0.64-4.16-1.76-6.56c5.92-3.04,10.72-4.16,15.35-4.48
				C1055.86,52.67,1056.18,52.67,1056.5,52.67z"/>
		</g>
	</g>
</g>
</svg>
