<?xml version="1.0" encoding="utf-8"?>
<!-- Generator: Adobe Illustrator 25.2.1, SVG Export Plug-In . SVG Version: 6.00 Build 0)  -->
<svg version="1.1" id="Layer_1" xmlns="http://www.w3.org/2000/svg" xmlns:xlink="http://www.w3.org/1999/xlink" x="0px" y="0px"
	 viewBox="0 0 313.4 203.3" style="enable-background:new 0 0 313.4 203.3;" xml:space="preserve">
<style type="text/css">
	.st0{fill:#F7B319;}
	.st1{fill:url(#SVGID_1_);}
	.st2{fill:url(#SVGID_2_);}
	.st3{fill:url(#SVGID_3_);}
</style>
<path class="st0" d="M42.9,143.2c-16.5-0.2,17.1-0.8,46.7,8s37.3-12.3,37.3-12.3"/>
<path class="st0" d="M116.3,107.1L62.5,91.4C62.5,91.5,81.1,119.5,116.3,107.1z"/>
<g>
	
		<linearGradient id="SVGID_1_" gradientUnits="userSpaceOnUse" x1="192.4548" y1="583.1051" x2="309.9543" y2="583.1051" gradientTransform="matrix(1 0 0 1 0 -482)">
		<stop  offset="0.1946" style="stop-color:#FDB714"/>
		<stop  offset="1" style="stop-color:#E5AF3A"/>
		<stop  offset="1" style="stop-color:#040504"/>
	</linearGradient>
	<path class="st1" d="M221.5,56.2l0.2-35.5c0,0,21.4-5.3,44.6,7.8c0.6,0.3,1.3,0.6,1.9,1c6.1,3.2,47.2,26.9,41.3,83.2
		c-6.6,60.6-68.5,69.1-89.1,69.7s-27.8-0.6-27.8-0.6s33.9-32.2,42.9-37.3c8-4.6,43.3-15.7,36.8-49.9
		C265.7,60.4,233.4,55.6,221.5,56.2z"/>
	
		<linearGradient id="SVGID_2_" gradientUnits="userSpaceOnUse" x1="157.1554" y1="588.3101" x2="274.9193" y2="588.3101" gradientTransform="matrix(0.9988 4.940000e-02 -4.940000e-02 0.9988 -9.6715 -444.8566)">
		<stop  offset="0.1946" style="stop-color:#FDB714"/>
		<stop  offset="1" style="stop-color:#E5AF3A"/>
		<stop  offset="1" style="stop-color:#040504"/>
	</linearGradient>
	<path class="st2" d="M230.6,148.8c-12.8,9.3-25,19.8-36.5,30.6c-2.6,2.4-5.1,4.3-7.5,6.9c-6.4,6.4-19,15.2-39.5,14.1l-10.1-0.5
		c0,0,20.3-5.6,22.2-18.1c1.8-12.5,5.1-19,5.1-19s-0.8-0.2-2.2-0.8c-9.9-3.8-16.5-13.4-16.6-24.1l0,0c0,0,7.7,13,22.1,7.7
		c0,0,10.2-5,3.2-18.6c0,0-5.1-14.7-33.9-7c0,0-8.8,0.2-17.6,8.8c0,0,6.9-18.9,28.3-22.7c21.4-3.7,30.2-2.1,52.9,17.6
		c22.7,19.8,35.8,21.9,35.8,21.9L230.6,148.8z"/>
	
		<linearGradient id="SVGID_3_" gradientUnits="userSpaceOnUse" x1="123.6777" y1="536.3555" x2="229.3691" y2="536.3555" gradientTransform="matrix(1 0 0 1 0 -482)">
		<stop  offset="0.1946" style="stop-color:#FDB714"/>
		<stop  offset="1" style="stop-color:#E5AF3A"/>
		<stop  offset="1" style="stop-color:#040504"/>
	</linearGradient>
	<path class="st3" d="M220.7,107.1c0,0-21.3-21.6-52.8-17.1c0,0-29.9,8.8-44.1-1.6c0,0,25.1,5,37.1-9.4s15.8-10.6,15.8-10.6
		s-16.9-8.8-29.9-1.1l-5.9,5c0,0,4.3-24.3,10.9-28.8s13.1-8.3,22.4-3.8c0,0-7.7-15-2.2-31.7c0,0,9.3,25,16.3,18.2c0,0,5-0.5,5-9.4
		s4.3-15,13.6-15s22.9,8.3,22.9,8.3s-9.3,4.5-8.6,7.8v89.2H220.7z"/>
</g>
<path class="st0" d="M107,136.7c0,0,3.5-29.1-104.8-23"/>
</svg>
